<?xml version="1.0" encoding="UTF-8" standalone="no"?>
<svg width="273px" height="72px" viewBox="0 0 273 72" version="1.1" xmlns="http://www.w3.org/2000/svg" xmlns:xlink="http://www.w3.org/1999/xlink">
    <!-- Generator: Sketch 43.1 (39012) - http://www.bohemiancoding.com/sketch -->
    <title>onleihe–drop</title>
    <desc>Created with Sketch.</desc>
    <defs>
        <filter x="-6.0%" y="-24.0%" width="111.9%" height="148.0%" filterUnits="objectBoundingBox" id="filter-1">
            <feOffset dx="0" dy="0" in="SourceAlpha" result="shadowOffsetOuter1"></feOffset>
            <feGaussianBlur stdDeviation="4" in="shadowOffsetOuter1" result="shadowBlurOuter1"></feGaussianBlur>
            <feColorMatrix values="0 0 0 0 0.141176471   0 0 0 0 0.062745098   0 0 0 0 0.0352941176  0 0 0 0.35 0" type="matrix" in="shadowBlurOuter1" result="shadowMatrixOuter1"></feColorMatrix>
            <feMerge>
                <feMergeNode in="shadowMatrixOuter1"></feMergeNode>
                <feMergeNode in="SourceGraphic"></feMergeNode>
            </feMerge>
        </filter>
    </defs>
    <g id="Page-1" stroke="none" stroke-width="1" fill="none" fill-rule="evenodd">
        <g id="onleihe–drop">
            <g id="Group-2" filter="url(#filter-1)" transform="translate(36.000000, 11.000000)">
                <g id="onleihe_logo_ger_col" transform="translate(0.917969, 0.290533)">
                    <path d="M84.836815,47.4061794 L84.836815,1.56426537 L76.2959261,1.97097437 L76.2959261,47.4061794 L84.836815,47.4061794 Z M112.724873,47.4642807 C114.50646,47.0776837 116.075194,46.5547721 117.431077,45.895546 L116.501457,38.8652905 C115.145574,39.408314 113.770696,39.815023 112.376266,40.0854175 C110.981835,40.3569292 109.509749,40.4921264 107.960568,40.4921264 C105.133158,40.4921264 103.041512,39.882063 101.685629,38.661936 C100.329746,37.441809 99.5744295,35.2440161 99.419679,32.0674401 L118.128293,32.0674401 C118.205947,31.4093313 118.264049,30.7121159 118.302597,29.9757938 C118.341145,29.2405891 118.360698,28.5232617 118.360698,27.8260463 C118.360698,22.171227 117.179119,18.0460357 114.81652,15.4504725 C112.45392,12.8560267 109.161142,11.5576864 104.939301,11.5576864 C100.020245,11.5576864 96.4079094,13.0683198 94.1034114,16.0895867 C91.7989133,19.1108535 90.6463849,23.5075565 90.6463849,29.2785784 C90.6463849,35.6317305 91.9341105,40.3468732 94.5101204,43.4262413 C97.0861302,46.5056095 101.220819,48.0452935 106.914745,48.0452935 C109.006391,48.0452935 110.943287,47.8508777 112.724873,47.4642807 Z M99.2453751,26.1992103 C99.4001256,23.4885619 99.9135399,21.5801581 100.785059,20.4762337 C101.656578,19.3723093 103.060507,18.8203471 104.997402,18.8203471 C106.701334,18.8203471 108.038222,19.3633706 109.006391,20.4471831 C109.97456,21.5321128 110.497471,23.4494552 110.575126,26.1992103 L99.2453751,26.1992103 Z M133.060323,47.4061794 L133.060323,11.9643954 L124.403232,12.3711044 L124.403232,47.4061794 L133.060323,47.4061794 Z M128.760828,0.750847378 C125.545145,0.750847378 123.938421,2.03913164 123.938421,4.61458284 C123.938421,5.98108038 124.335074,6.95651157 125.129498,7.54255242 C125.922804,8.1280346 127.133992,8.42021702 128.760828,8.42021702 C131.936287,8.42021702 133.525133,7.15204474 133.525133,4.61458284 C133.525133,2.03913164 131.936287,0.750847378 128.760828,0.750847378 Z M167.74679,47.4061794 L167.74679,24.2818679 C167.74679,20.1767886 166.807114,17.0192072 164.928878,14.8113584 C163.049525,12.6035096 160.405916,11.4995851 156.998053,11.4995851 C155.641611,11.4995851 154.276231,11.7129956 152.901912,12.1386993 C151.526476,12.5655203 150.238192,13.300725 149.038177,14.3465481 L148.921974,14.2303455 L149.038177,9.58224273 L149.038177,1.56426537 L140.497288,2.02907565 L140.497288,47.4061794 L149.038177,47.4061794 L149.038177,21.7835126 C149.500193,21.0092013 150.202996,20.3801431 151.147141,19.8952208 C152.09017,19.4114159 153.139904,19.1689548 154.295225,19.1689548 C157.646105,19.1689548 159.322104,20.874004 159.322104,24.2818679 L159.322104,47.4061794 L167.74679,47.4061794 Z M194.066673,47.4642807 C195.8477,47.0776837 197.416435,46.5547721 198.772877,45.895546 L197.843256,38.8652905 C196.486815,39.408314 195.112496,39.815023 193.718065,40.0854175 C192.323634,40.3569292 190.85099,40.4921264 189.302367,40.4921264 C186.474399,40.4921264 184.382753,39.882063 183.027428,38.661936 C181.670987,37.441809 180.91567,35.2440161 180.761478,32.0674401 L199.470092,32.0674401 C199.547188,31.4093313 199.605289,30.7121159 199.644396,29.9757938 C199.682385,29.2405891 199.702497,28.5232617 199.702497,27.8260463 C199.702497,22.171227 198.52036,18.0460357 196.158319,15.4504725 C193.795161,12.8560267 190.502382,11.5576864 186.2811,11.5576864 C181.361486,11.5576864 177.74915,13.0683198 175.445211,16.0895867 C173.140154,19.1108535 171.988184,23.5075565 171.988184,29.2785784 C171.988184,35.6317305 173.275351,40.3468732 175.85192,43.4262413 C178.427371,46.5056095 182.562618,48.0452935 188.256544,48.0452935 C190.34819,48.0452935 192.284527,47.8508777 194.066673,47.4642807 Z M180.587174,26.1992103 C180.741366,23.4885619 181.255339,21.5801581 182.126858,20.4762337 C182.998378,19.3723093 184.401747,18.8203471 186.339202,18.8203471 C188.043134,18.8203471 189.379463,19.3633706 190.34819,20.4471831 C191.3158,21.5321128 191.838712,23.4494552 191.916925,26.1992103 L180.587174,26.1992103 L180.587174,26.1992103 Z" id="Fill-1" fill="#FFFFFF"></path>
                    <path d="M69.3824318,47.4061794 L69.3824318,24.2818679 C69.3824318,20.060586 68.396386,16.873954 66.426529,14.7242065 C64.4555546,12.5744589 61.7700461,11.4995851 58.3705623,11.4995851 C56.6710997,11.4995851 55.0677277,11.7900916 53.5604463,12.3711044 C52.0537235,12.9521173 50.7011927,13.7856472 49.5034123,14.8694597 L48.275464,11.9062941 L42.1329291,12.3130031 L42.1329291,47.4061794 L50.673818,47.4061794 L50.673818,21.7254113 C51.2129309,20.9511 51.9637783,20.3309805 52.9269188,19.8661702 C53.8895007,19.4013599 54.8906305,19.1689548 55.930867,19.1689548 C57.5487643,19.1689548 58.7906793,19.5566691 59.6577292,20.3309805 C60.5236618,21.1064092 60.9577455,22.4226268 60.9577455,24.2818679 L60.9577455,47.4061794 L69.3824318,47.4061794" id="Fill-2" fill="#97BF0D"></path>
                    <path d="M18.1236903,47.5033873 C28.0942061,47.5033873 36.1769887,39.4206047 36.1769887,29.4500889 C36.1769887,19.4795732 28.0942061,11.3967906 18.1236903,11.3967906 C8.15317458,11.3967906 0.0703919417,19.4795732 0.0703919417,29.4500889 C0.0703919417,39.4206047 8.15317458,47.5033873 18.1236903,47.5033873" id="Fill-3" fill="#97BF0D"></path>
                    <path d="M18.1236903,40.7412916 C24.3595225,40.7412916 29.414893,35.6859211 29.414893,29.4500889 C29.414893,23.2142568 24.3595225,18.1588863 18.1236903,18.1588863 C11.8878581,18.1588863 6.83248767,23.2142568 6.83248767,29.4500889 C6.83248767,35.6859211 11.8878581,40.7412916 18.1236903,40.7412916 Z" id="Stroke-4" stroke="#FFFFFF" stroke-width="5.82995951"></path>
                    <path d="M16.8868033,15.5186298 C16.8868033,15.5186298 15.6197484,15.5186298 15.6197484,16.7856848 L15.6197484,28.9707533 C15.6197484,28.9707533 15.6197484,30.2372496 16.8868033,30.2372496 L19.7935436,30.2372496 C19.7935436,30.2372496 21.0600399,30.2372496 21.0600399,28.9707533 L21.0600399,16.7856848 C21.0600399,16.7856848 21.0600399,15.5186298 19.7935436,15.5186298 L16.8868033,15.5186298" id="Fill-6" fill="#FFFFFF"></path>
                    <path d="M16.8868033,15.5186298 C16.8868033,15.5186298 15.6197484,15.5186298 15.6197484,16.7856848 L15.6197484,28.9707533 C15.6197484,28.9707533 15.6197484,30.2372496 16.8868033,30.2372496 L19.7935436,30.2372496 C19.7935436,30.2372496 21.0600399,30.2372496 21.0600399,28.9707533 L21.0600399,16.7856848 C21.0600399,16.7856848 21.0600399,15.5186298 19.7935436,15.5186298 L16.8868033,15.5186298 Z" id="Stroke-7" stroke="#97BF0D" stroke-width="1.6194332"></path>
                </g>
            </g>
        </g>
    </g>
</svg>