<?xml version="1.0" encoding="UTF-8" standalone="no"?>
<svg width="358px" height="85px" viewBox="0 0 358 85" version="1.1" xmlns="http://www.w3.org/2000/svg" xmlns:xlink="http://www.w3.org/1999/xlink">
    <!-- Generator: Sketch 43.1 (39012) - http://www.bohemiancoding.com/sketch -->
    <title>onleihe_logo_ger_col</title>
    <desc>Created with Sketch.</desc>
    <defs></defs>
    <g id="Page-1" stroke="none" stroke-width="1" fill="none" fill-rule="evenodd">
        <g id="onleihe_logo_ger_col" transform="translate(0.000000, -1.000000)">
            <path d="M151.856,84.856 L151.856,2.8 L136.568,3.528 L136.568,84.856 L151.856,84.856 Z M201.775,84.96 C204.964,84.268 207.772,83.332 210.199,82.152 L208.535,69.568 C206.108,70.54 203.647,71.268 201.151,71.752 C198.655,72.238 196.02,72.48 193.247,72.48 C188.186,72.48 184.442,71.388 182.015,69.204 C179.588,67.02 178.236,63.086 177.959,57.4 L211.447,57.4 C211.586,56.222 211.69,54.974 211.759,53.656 C211.828,52.34 211.863,51.056 211.863,49.808 C211.863,39.686 209.748,32.302 205.519,27.656 C201.29,23.012 195.396,20.688 187.839,20.688 C179.034,20.688 172.568,23.392 168.443,28.8 C164.318,34.208 162.255,42.078 162.255,52.408 C162.255,63.78 164.56,72.22 169.171,77.732 C173.782,83.244 181.183,86 191.375,86 C195.119,86 198.586,85.652 201.775,84.96 Z M177.647,46.896 C177.924,42.044 178.843,38.628 180.403,36.652 C181.963,34.676 184.476,33.688 187.943,33.688 C190.993,33.688 193.386,34.66 195.119,36.6 C196.852,38.542 197.788,41.974 197.927,46.896 L177.647,46.896 Z M238.175,84.856 L238.175,21.416 L222.679,22.144 L222.679,84.856 L238.175,84.856 Z M230.479,1.344 C224.723,1.344 221.847,3.65 221.847,8.26 C221.847,10.706 222.557,12.452 223.979,13.501 C225.399,14.549 227.567,15.072 230.479,15.072 C236.163,15.072 239.007,12.802 239.007,8.26 C239.007,3.65 236.163,1.344 230.479,1.344 Z M300.263,84.856 L300.263,43.464 C300.263,36.116 298.581,30.464 295.219,26.512 C291.855,22.56 287.123,20.584 281.023,20.584 C278.595,20.584 276.151,20.966 273.691,21.728 C271.229,22.492 268.923,23.808 266.775,25.68 L266.567,25.472 L266.775,17.152 L266.775,2.8 L251.487,3.632 L251.487,84.856 L266.775,84.856 L266.775,38.992 C267.602,37.606 268.86,36.48 270.55,35.612 C272.238,34.746 274.117,34.312 276.185,34.312 C282.183,34.312 285.183,37.364 285.183,43.464 L285.183,84.856 L300.263,84.856 Z M347.375,84.96 C350.563,84.268 353.371,83.332 355.799,82.152 L354.135,69.568 C351.707,70.54 349.247,71.268 346.751,71.752 C344.255,72.238 341.619,72.48 338.847,72.48 C333.785,72.48 330.041,71.388 327.615,69.204 C325.187,67.02 323.835,63.086 323.559,57.4 L357.047,57.4 C357.185,56.222 357.289,54.974 357.359,53.656 C357.427,52.34 357.463,51.056 357.463,49.808 C357.463,39.686 355.347,32.302 351.119,27.656 C346.889,23.012 340.995,20.688 333.439,20.688 C324.633,20.688 318.167,23.392 314.043,28.8 C309.917,34.208 307.855,42.078 307.855,52.408 C307.855,63.78 310.159,72.22 314.771,77.732 C319.381,83.244 326.783,86 336.975,86 C340.719,86 344.185,85.652 347.375,84.96 Z M323.247,46.896 C323.523,42.044 324.443,38.628 326.003,36.652 C327.563,34.676 330.075,33.688 333.543,33.688 C336.593,33.688 338.985,34.66 340.719,36.6 C342.451,38.542 343.387,41.974 343.527,46.896 L323.247,46.896 L323.247,46.896 Z" id="Fill-1" fill="#000000"></path>
            <path d="M124.193,84.856 L124.193,43.464 C124.193,35.908 122.428,30.204 118.902,26.356 C115.374,22.508 110.567,20.584 104.482,20.584 C101.44,20.584 98.57,21.104 95.872,22.144 C93.175,23.184 90.754,24.676 88.61,26.616 L86.412,21.312 L75.417,22.04 L75.417,84.856 L90.705,84.856 L90.705,38.888 C91.67,37.502 93.014,36.392 94.738,35.56 C96.461,34.728 98.253,34.312 100.115,34.312 C103.011,34.312 105.234,35.006 106.786,36.392 C108.336,37.78 109.113,40.136 109.113,43.464 L109.113,84.856 L124.193,84.856" id="Fill-2" fill="#97BF0D"></path>
            <path d="M32.441,85.03 C50.288,85.03 64.756,70.562 64.756,52.715 C64.756,34.868 50.288,20.4 32.441,20.4 C14.594,20.4 0.126,34.868 0.126,52.715 C0.126,70.562 14.594,85.03 32.441,85.03" id="Fill-3" fill="#97BF0D"></path>
            <path d="M32.441,72.926 C43.603,72.926 52.652,63.877 52.652,52.715 C52.652,41.553 43.603,32.504 32.441,32.504 C21.279,32.504 12.23,41.553 12.23,52.715 C12.23,63.877 21.279,72.926 32.441,72.926 Z" id="Stroke-4" stroke="#FFFFFF" stroke-width="7.2"></path>
            <path d="M30.227,27.778 C30.227,27.778 27.959,27.778 27.959,30.046 L27.959,51.857 C27.959,51.857 27.959,54.124 30.227,54.124 L35.43,54.124 C35.43,54.124 37.697,54.124 37.697,51.857 L37.697,30.046 C37.697,30.046 37.697,27.778 35.43,27.778 L30.227,27.778" id="Fill-6" fill="#FFFFFF"></path>
            <path d="M30.227,27.778 C30.227,27.778 27.959,27.778 27.959,30.046 L27.959,51.857 C27.959,51.857 27.959,54.124 30.227,54.124 L35.43,54.124 C35.43,54.124 37.697,54.124 37.697,51.857 L37.697,30.046 C37.697,30.046 37.697,27.778 35.43,27.778 L30.227,27.778 Z" id="Stroke-7" stroke="#97BF0D" stroke-width="2"></path>
        </g>
    </g>
</svg>